# Blender v2.82 (sub 7) OBJ File: ''
# www.blender.org
mtllib rhombic-triacontahedron.mtl
o rhombic-triacontahedron
v 0.355499 -0.000014 -0.931605
v -0.356265 -0.000014 -0.932810
v 0.000245 0.576696 -0.932862
v 0.574957 0.575305 -0.575263
v 0.929239 0.355088 0.000011
v 0.925267 -0.000088 -0.571400
v -0.000026 0.931400 -0.355922
v -0.000026 0.931356 0.355894
v 0.574282 0.928642 0.000002
v 0.574643 -0.574939 -0.575076
v -0.000243 -0.931526 -0.355984
v 0.000370 -0.576955 -0.933328
v 0.355122 0.000242 0.930133
v 0.574045 -0.574058 0.574042
v 0.925835 -0.000235 0.571995
v -0.576034 0.575998 -0.576163
v -0.574290 0.929176 0.000103
v -0.576456 -0.576504 -0.576498
v -0.932048 0.000113 -0.575764
v -0.575349 0.575570 0.575565
v -0.355343 0.000243 0.930476
v 0.000081 0.576605 0.933309
v -0.000241 -0.930219 0.355155
v 0.572520 -0.925713 0.000242
v -0.575148 -0.575193 0.574859
v -0.576501 -0.933080 0.000345
v -0.931101 0.355635 -0.000164
v -0.931655 -0.355984 -0.000164
v -0.927084 -0.000035 0.573143
v 0.574976 0.575298 0.575262
v 0.928739 -0.354768 0.000011
v 0.000204 -0.572117 0.925600
vn 0.0017 -0.0011 -1.0000
vn 0.8125 0.4926 -0.3118
vn 0.0048 1.0000 0.0001
vn 0.3128 -0.8095 -0.4968
vn 0.5057 -0.3071 0.8062
vn -0.3106 0.8108 -0.4960
vn -0.5014 -0.3082 -0.8085
vn -0.5030 0.3062 0.8082
vn 0.3135 -0.8100 0.4956
vn -0.3062 -0.8077 0.5039
vn -1.0000 0.0008 0.0075
vn -0.5044 -0.3062 0.8073
vn 0.3118 0.8098 0.4970
vn 0.3116 0.8095 -0.4976
vn 0.8094 0.5009 0.3067
vn 0.8106 -0.4959 0.3115
vn 1.0000 -0.0007 0.0055
vn 0.5065 0.3042 0.8068
vn 0.0005 -0.0082 1.0000
vn -0.3108 0.8098 0.4976
vn -0.8112 0.4944 0.3124
vn -0.8094 0.5002 -0.3076
vn 0.5031 0.3082 -0.8074
vn -0.5011 0.3092 -0.8082
vn 0.8081 -0.5043 -0.3045
vn 0.5043 -0.3080 -0.8067
vn -0.3087 -0.8104 -0.4980
vn -0.8103 -0.4949 0.3137
vn -0.8099 -0.4991 -0.3082
vn 0.0038 -1.0000 0.0018
vn 0.0017 0.0019 -1.0000
vn 0.8094 0.5009 -0.3067
vn -0.0038 1.0000 0.0001
vn 0.3150 -0.8109 -0.4932
vn 0.4953 -0.3135 0.8102
vn -0.3093 0.8100 -0.4982
vn -0.5006 -0.3087 -0.8088
vn -0.5048 0.3051 0.8075
vn 0.3072 -0.8061 0.5058
vn -0.3045 -0.8066 0.5066
vn -1.0000 0.0008 0.0012
vn -0.4931 -0.3132 0.8116
vn 0.3116 0.8096 0.4974
vn 0.3119 0.8098 -0.4970
vn 0.8122 0.4934 0.3113
vn 0.8076 -0.5038 0.3066
vn 1.0000 -0.0007 -0.0065
vn 0.5038 0.3059 0.8078
vn 0.0005 -0.0052 1.0000
vn -0.3111 0.8100 0.4971
vn -0.8081 0.5026 0.3073
vn -0.8083 0.5030 -0.3058
vn 0.5090 0.3045 -0.8051
vn -0.5007 0.3095 -0.8084
vn 0.8122 -0.4934 -0.3112
vn 0.5088 -0.3052 -0.8049
vn -0.3072 -0.8095 -0.5004
vn -0.8093 -0.4978 0.3120
vn -0.8100 -0.4988 -0.3084
vn 0.0090 -1.0000 0.0018
usemtl Default_OBJ
s off
f 1//1 2//1 3//1
f 4//2 5//2 6//2
f 7//3 8//3 9//3
f 10//4 11//4 12//4
f 13//5 14//5 15//5
f 7//6 16//6 17//6
f 2//7 18//7 19//7
f 20//8 21//8 22//8
f 14//9 23//9 24//9
f 23//10 25//10 26//10
f 27//11 28//11 29//11
f 25//12 21//12 29//12
f 8//13 30//13 9//13
f 7//14 4//14 3//14
f 30//15 5//15 9//15
f 14//16 31//16 15//16
f 31//17 5//17 15//17
f 30//18 13//18 15//18
f 13//19 21//19 32//19
f 8//20 20//20 22//20
f 20//21 27//21 29//21
f 27//22 16//22 19//22
f 4//23 1//23 3//23
f 16//24 2//24 19//24
f 10//25 31//25 24//25
f 1//26 10//26 12//26
f 11//27 18//27 12//27
f 28//28 25//28 29//28
f 18//29 28//29 19//29
f 11//30 23//30 26//30
f 1//31 12//31 2//31
f 4//32 9//32 5//32
f 7//33 17//33 8//33
f 10//34 24//34 11//34
f 13//35 32//35 14//35
f 7//36 3//36 16//36
f 2//37 12//37 18//37
f 20//38 29//38 21//38
f 14//39 32//39 23//39
f 23//40 32//40 25//40
f 27//41 19//41 28//41
f 25//42 32//42 21//42
f 8//43 22//43 30//43
f 7//44 9//44 4//44
f 30//45 15//45 5//45
f 14//46 24//46 31//46
f 31//47 6//47 5//47
f 30//48 22//48 13//48
f 13//49 22//49 21//49
f 8//50 17//50 20//50
f 20//51 17//51 27//51
f 27//52 17//52 16//52
f 4//53 6//53 1//53
f 16//54 3//54 2//54
f 10//55 6//55 31//55
f 1//56 6//56 10//56
f 11//57 26//57 18//57
f 28//58 26//58 25//58
f 18//59 26//59 28//59
f 11//60 24//60 23//60
